<svg width="16" height="20" viewBox="0 0 16 20" fill="none" xmlns="http://www.w3.org/2000/svg">
<path fill-rule="evenodd" clip-rule="evenodd" d="M11.2873 18.2968C9.69197 19.0766 7.8717 19.2651 6.15045 18.8287C4.42919 18.3923 2.9186 17.3593 1.88752 15.9136C0.856449 14.4679 0.371772 12.7032 0.519751 10.9337C0.667731 9.16413 1.43877 7.50449 2.69564 6.25011L7.9998 0.946777L13.3031 6.25011C14.0206 6.96567 14.5851 7.81963 14.9623 8.76011C15.509 10.1239 15.6433 11.6182 15.3483 13.0575C15.0534 14.4969 14.3422 15.818 13.3031 16.8568C12.7158 17.4454 12.0345 17.932 11.2873 18.2968V18.2968ZM3.87481 7.42844L7.9998 3.30344L12.1248 7.42844C13.1863 8.4873 13.7978 9.91531 13.8315 11.4143H2.16814C2.20173 9.91529 2.81319 8.48725 3.87481 7.42844V7.42844Z" fill="white"/>
</svg>
